<svg xmlns="http://www.w3.org/2000/svg" width="1600" height="1270" viewBox="0 0 1600 1270" role="img">
<title>An actual execution: three drafts, an omission remains</title><desc>Saved medical case / observed events only; no invented hidden nodes or intermediate state</desc>
<defs><marker id="arrow" markerWidth="8" markerHeight="8" refX="7" refY="4" orient="auto"><path d="M0,0 L8,4 L0,8 Z" fill="#647273"/></marker></defs>
<rect width="1600" height="100%" fill="#faf9f5"/>
<g font-family="Arial, Microsoft YaHei, sans-serif" fill="#203436">
<text x="50" y="44" font-size="18" fill="#296789" font-weight="normal">VERITASMED / v0.8 / DOCUMENTATION</text>
<text x="50" y="91" font-size="34" fill="#203436" font-weight="bold">An actual execution: three drafts, an omission remains</text>
<text x="50" y="129" font-size="21" fill="#647273" font-weight="normal">Saved medical case / observed events only; no invented hidden nodes or intermediate state</text>
<text x="50" y="180" font-size="23" fill="#203436" font-weight="bold">Nodes / event-receipt durations</text>
<rect x="50" y="215" width="600" height="64" rx="12" stroke="#647273" stroke-width="2" fill="#ffffff"/>
<text x="66" y="242" font-size="23" fill="#647273" font-weight="bold">01  resolve_context  #1</text>
<text x="66" y="267" font-size="17" fill="#647273" font-weight="normal">Executed  /  10.18s</text>
<path d="M345,279 L345,293" fill="none" stroke="#647273" stroke-width="2"  marker-end="url(#arrow)"/>
<rect x="50" y="293" width="600" height="64" rx="12" stroke="#647273" stroke-width="2" fill="#ffffff"/>
<text x="66" y="320" font-size="23" fill="#647273" font-weight="bold">02  route  #1</text>
<text x="66" y="345" font-size="17" fill="#647273" font-weight="normal">Executed  /  5.68s</text>
<path d="M345,357 L345,371" fill="none" stroke="#647273" stroke-width="2"  marker-end="url(#arrow)"/>
<rect x="50" y="371" width="600" height="64" rx="12" stroke="#647273" stroke-width="2" fill="#ffffff"/>
<text x="66" y="398" font-size="23" fill="#647273" font-weight="bold">03  retrieve  #1</text>
<text x="66" y="423" font-size="17" fill="#647273" font-weight="normal">Executed  /  0.75s</text>
<path d="M345,435 L345,449" fill="none" stroke="#647273" stroke-width="2"  marker-end="url(#arrow)"/>
<rect x="50" y="449" width="600" height="64" rx="12" stroke="#647273" stroke-width="2" fill="#ffffff"/>
<text x="66" y="476" font-size="23" fill="#647273" font-weight="bold">04  rerank  #1</text>
<text x="66" y="501" font-size="17" fill="#647273" font-weight="normal">Executed  /  13.62s</text>
<path d="M345,513 L345,527" fill="none" stroke="#647273" stroke-width="2"  marker-end="url(#arrow)"/>
<rect x="50" y="527" width="600" height="64" rx="12" stroke="#647273" stroke-width="2" fill="#ffffff"/>
<text x="66" y="554" font-size="23" fill="#647273" font-weight="bold">05  grade  #1</text>
<text x="66" y="579" font-size="17" fill="#647273" font-weight="normal">Executed  /  10.01s</text>
<path d="M345,591 L345,605" fill="none" stroke="#647273" stroke-width="2"  marker-end="url(#arrow)"/>
<rect x="50" y="605" width="600" height="64" rx="12" stroke="#296789" stroke-width="2" fill="#ffffff"/>
<text x="66" y="632" font-size="23" fill="#296789" font-weight="bold">06  generate  #1</text>
<text x="66" y="657" font-size="17" fill="#647273" font-weight="normal">Executed  /  4.27s</text>
<path d="M345,669 L345,683" fill="none" stroke="#647273" stroke-width="2"  marker-end="url(#arrow)"/>
<rect x="50" y="683" width="600" height="64" rx="12" stroke="#a9691e" stroke-width="2" fill="#fcf3e5"/>
<text x="66" y="710" font-size="23" fill="#a9691e" font-weight="bold">07  check  #1</text>
<text x="66" y="735" font-size="17" fill="#647273" font-weight="normal">Executed / issues found  /  12.04s</text>
<path d="M345,747 L345,761" fill="none" stroke="#647273" stroke-width="2"  marker-end="url(#arrow)"/>
<rect x="50" y="761" width="600" height="64" rx="12" stroke="#296789" stroke-width="2" fill="#ffffff"/>
<text x="66" y="788" font-size="23" fill="#296789" font-weight="bold">08  generate  #2</text>
<text x="66" y="813" font-size="17" fill="#647273" font-weight="normal">Executed  /  5.75s</text>
<path d="M345,825 L345,839" fill="none" stroke="#647273" stroke-width="2"  marker-end="url(#arrow)"/>
<rect x="50" y="839" width="600" height="64" rx="12" stroke="#a9691e" stroke-width="2" fill="#fcf3e5"/>
<text x="66" y="866" font-size="23" fill="#a9691e" font-weight="bold">09  check  #2</text>
<text x="66" y="891" font-size="17" fill="#647273" font-weight="normal">Executed / issues found  /  13.65s</text>
<path d="M345,903 L345,917" fill="none" stroke="#647273" stroke-width="2"  marker-end="url(#arrow)"/>
<rect x="50" y="917" width="600" height="64" rx="12" stroke="#296789" stroke-width="2" fill="#ffffff"/>
<text x="66" y="944" font-size="23" fill="#296789" font-weight="bold">10  generate  #3</text>
<text x="66" y="969" font-size="17" fill="#647273" font-weight="normal">Executed  /  6.57s</text>
<path d="M345,981 L345,995" fill="none" stroke="#647273" stroke-width="2"  marker-end="url(#arrow)"/>
<rect x="50" y="995" width="600" height="64" rx="12" stroke="#a9691e" stroke-width="2" fill="#fcf3e5"/>
<text x="66" y="1022" font-size="23" fill="#a9691e" font-weight="bold">11  check  #3</text>
<text x="66" y="1047" font-size="17" fill="#647273" font-weight="normal">Executed / issues found  /  10.84s</text>
<path d="M345,1059 L345,1073" fill="none" stroke="#647273" stroke-width="2"  marker-end="url(#arrow)"/>
<rect x="50" y="1073" width="600" height="64" rx="12" stroke="#647273" stroke-width="2" fill="#ffffff"/>
<text x="66" y="1100" font-size="23" fill="#647273" font-weight="bold">12  append_history  #1</text>
<text x="66" y="1125" font-size="17" fill="#647273" font-weight="normal">Executed  /  0.00s</text>
<rect x="695" y="215" width="855" height="235" rx="12" stroke="#d8dedc" stroke-width="2" fill="#ffffff"/>
<text x="720" y="253" font-size="24" fill="#203436" font-weight="bold">Original question / unchanged</text>
<text x="720" y="300" font-size="23" fill="#203436" font-weight="normal">Quote the abstract sentence describing how long the glucose</text>
<text x="720" y="333" font-size="23" fill="#203436" font-weight="normal">decrease persisted, and state whether that sentence supplies a</text>
<text x="720" y="366" font-size="23" fill="#203436" font-weight="normal">five-year mortality result.</text>
<rect x="695" y="478" width="855" height="285" rx="12" stroke="#a9691e" stroke-width="2" fill="#fcf3e5"/>
<text x="720" y="518" font-size="25" fill="#a9691e" font-weight="bold">The last check still reports an omission</text>
<text x="720" y="558" font-size="23" fill="#a9691e" font-weight="normal">faithful: false → false → false</text>
<text x="720" y="605" font-size="19" fill="#203436" font-weight="normal">The answer correctly quotes the abstract sentence about glucose decrease</text>
<text x="720" y="634" font-size="19" fill="#203436" font-weight="normal">persisting for approximately 3 hours. However, it omits the required statement</text>
<text x="720" y="663" font-size="19" fill="#203436" font-weight="normal">that this sentence does not supply a five-year mortality result. Add that no</text>
<text x="720" y="692" font-size="19" fill="#203436" font-weight="normal">five-year mortality result is provided by the quoted sentence.</text>
<rect x="695" y="792" width="855" height="145" rx="12" stroke="#647273" stroke-width="2" fill="#f1f3f0"/>
<text x="720" y="831" font-size="24" fill="#203436" font-weight="bold">Final returned fields / separate from drafts</text>
<text x="720" y="876" font-size="21" fill="#203436" font-weight="normal">faithful = false / regen_count = 2 / iterations = 0</text>
<text x="720" y="907" font-size="21" fill="#203436" font-weight="normal">Last observed transition: check → append_history</text>
<rect x="695" y="965" width="855" height="190" rx="12" stroke="#647273" stroke-width="2" fill="#ffffff"/>
<text x="720" y="1007" font-size="24" fill="#203436" font-weight="bold">Not recorded</text>
<text x="720" y="1050" font-size="21" fill="#647273" font-weight="normal">Full node inputs, prompts, outlines and successive full drafts.</text>
<text x="720" y="1081" font-size="21" fill="#647273" font-weight="normal">Execution completion ≠ passing judgment ≠ reliable answer.</text>
<text x="720" y="1112" font-size="21" fill="#647273" font-weight="normal">Internal check is separate from a later answer Audit.</text>
<text x="50" y="1210" font-size="20" fill="#647273" font-weight="normal">Durations include scheduling / transport; original events omit counter/summary helpers.</text>
<text x="50" y="1240" font-size="20" fill="#647273" font-weight="normal">Source: v08-evidence-limits-turn-3-events.jsonl. This demo is not an independent reliability test set.</text>
</g></svg>
